<svg width="45" height="45" viewBox="0 0 45 45" fill="none" xmlns="http://www.w3.org/2000/svg">
<g clip-path="url(#clip0)">
<path d="M40.8589 5.64856H4.14114C1.85774 5.64856 0 7.50622 0 9.79251C0 12.0759 1.85774 13.9337 4.14114 13.9337H40.8589C43.1423 13.9337 45 12.0759 45 9.79251C45 7.50622 43.1423 5.64856 40.8589 5.64856Z" fill="white"/>
<path d="M40.8589 18.3574H4.14114C1.85774 18.3574 0 20.2151 0 22.5014C0 24.7848 1.85774 26.6425 4.14114 26.6425H40.8589C43.1423 26.6425 45 24.7848 45 22.5014C45 20.2151 43.1423 18.3574 40.8589 18.3574V18.3574Z" fill="white"/>
<path d="M40.8589 31.0664H4.14114C1.85774 31.0664 0 32.9241 0 35.2104C0 37.4938 1.85774 39.3515 4.14114 39.3515H40.8589C43.1423 39.3515 45 37.4938 45 35.2104C45 32.9241 43.1423 31.0664 40.8589 31.0664Z" fill="white"/>
</g>
<defs>
<clipPath id="clip0">
<rect width="45" height="45" fill="white"/>
</clipPath>
</defs>
</svg>
