<svg width="209" height="76" viewBox="0 0 209 76" fill="none" xmlns="http://www.w3.org/2000/svg">
<g filter="url(#filter0_d)">
<path d="M97.848 33L97.8 24.096L93.48 31.344H91.368L87.072 24.336V33H82.68V16.2H86.592L92.496 25.896L98.256 16.2H102.168L102.216 33H97.848ZM110.906 19.776C113.066 19.776 114.714 20.272 115.85 21.264C116.986 22.24 117.554 23.744 117.554 25.776V33H113.306V31.32C112.65 32.584 111.37 33.216 109.466 33.216C108.458 33.216 107.586 33.04 106.85 32.688C106.114 32.336 105.554 31.864 105.17 31.272C104.802 30.664 104.618 29.976 104.618 29.208C104.618 27.976 105.09 27.024 106.034 26.352C106.978 25.664 108.434 25.32 110.402 25.32H112.994C112.914 23.944 111.994 23.256 110.234 23.256C109.61 23.256 108.978 23.36 108.338 23.568C107.698 23.76 107.154 24.032 106.706 24.384L105.17 21.288C105.89 20.808 106.762 20.44 107.786 20.184C108.826 19.912 109.866 19.776 110.906 19.776ZM110.738 30.336C111.266 30.336 111.73 30.208 112.13 29.952C112.53 29.696 112.818 29.32 112.994 28.824V27.696H111.026C109.698 27.696 109.034 28.136 109.034 29.016C109.034 29.416 109.186 29.736 109.49 29.976C109.794 30.216 110.21 30.336 110.738 30.336ZM124.777 21.552C125.241 20.96 125.841 20.52 126.577 20.232C127.329 19.928 128.185 19.776 129.145 19.776V23.88C128.729 23.832 128.385 23.808 128.113 23.808C127.137 23.808 126.369 24.072 125.809 24.6C125.265 25.128 124.993 25.936 124.993 27.024V33H120.433V19.992H124.777V21.552ZM147.971 19.776C149.571 19.776 150.843 20.256 151.787 21.216C152.747 22.176 153.227 23.624 153.227 25.56V33H148.667V26.304C148.667 25.392 148.491 24.72 148.139 24.288C147.803 23.856 147.323 23.64 146.699 23.64C146.011 23.64 145.459 23.88 145.043 24.36C144.627 24.84 144.419 25.568 144.419 26.544V33H139.859V26.304C139.859 24.528 139.203 23.64 137.891 23.64C137.187 23.64 136.627 23.88 136.211 24.36C135.795 24.84 135.587 25.568 135.587 26.544V33H131.027V19.992H135.371V21.36C135.851 20.832 136.419 20.44 137.075 20.184C137.747 19.912 138.475 19.776 139.259 19.776C140.171 19.776 140.987 19.944 141.707 20.28C142.427 20.616 143.011 21.128 143.459 21.816C143.971 21.16 144.619 20.656 145.403 20.304C146.187 19.952 147.043 19.776 147.971 19.776ZM162.82 33.216C161.428 33.216 160.172 32.928 159.052 32.352C157.932 31.776 157.052 30.976 156.412 29.952C155.788 28.928 155.476 27.768 155.476 26.472C155.476 25.192 155.788 24.04 156.412 23.016C157.052 21.992 157.924 21.2 159.028 20.64C160.148 20.064 161.412 19.776 162.82 19.776C164.228 19.776 165.492 20.064 166.612 20.64C167.732 21.2 168.604 21.992 169.228 23.016C169.852 24.024 170.164 25.176 170.164 26.472C170.164 27.768 169.852 28.928 169.228 29.952C168.604 30.976 167.732 31.776 166.612 32.352C165.492 32.928 164.228 33.216 162.82 33.216ZM162.82 29.592C163.62 29.592 164.276 29.32 164.788 28.776C165.3 28.216 165.556 27.448 165.556 26.472C165.556 25.512 165.3 24.76 164.788 24.216C164.276 23.672 163.62 23.4 162.82 23.4C162.02 23.4 161.364 23.672 160.852 24.216C160.34 24.76 160.084 25.512 160.084 26.472C160.084 27.448 160.34 28.216 160.852 28.776C161.364 29.32 162.02 29.592 162.82 29.592ZM181.253 32.472C180.869 32.712 180.397 32.896 179.837 33.024C179.293 33.152 178.709 33.216 178.085 33.216C176.389 33.216 175.085 32.8 174.173 31.968C173.261 31.136 172.805 29.896 172.805 28.248V23.88H170.909V20.472H172.805V17.088H177.365V20.472H180.341V23.88H177.365V28.2C177.365 28.664 177.485 29.032 177.725 29.304C177.981 29.56 178.317 29.688 178.733 29.688C179.261 29.688 179.725 29.552 180.125 29.28L181.253 32.472ZM187.739 33.216C186.651 33.216 185.579 33.096 184.523 32.856C183.467 32.6 182.619 32.272 181.979 31.872L183.347 28.752C183.939 29.12 184.643 29.416 185.459 29.64C186.275 29.848 187.083 29.952 187.883 29.952C188.619 29.952 189.139 29.88 189.443 29.736C189.763 29.576 189.923 29.352 189.923 29.064C189.923 28.776 189.731 28.576 189.347 28.464C188.979 28.336 188.387 28.216 187.571 28.104C186.531 27.976 185.643 27.808 184.907 27.6C184.187 27.392 183.563 27.008 183.035 26.448C182.507 25.888 182.243 25.104 182.243 24.096C182.243 23.264 182.491 22.528 182.987 21.888C183.483 21.232 184.203 20.72 185.147 20.352C186.107 19.968 187.251 19.776 188.579 19.776C189.523 19.776 190.459 19.872 191.387 20.064C192.315 20.256 193.091 20.528 193.715 20.88L192.347 23.976C191.195 23.336 189.947 23.016 188.603 23.016C187.883 23.016 187.355 23.104 187.019 23.28C186.683 23.44 186.515 23.656 186.515 23.928C186.515 24.232 186.699 24.448 187.067 24.576C187.435 24.688 188.043 24.808 188.891 24.936C189.963 25.096 190.851 25.28 191.555 25.488C192.259 25.696 192.867 26.08 193.379 26.64C193.907 27.184 194.171 27.952 194.171 28.944C194.171 29.76 193.923 30.496 193.427 31.152C192.931 31.792 192.195 32.296 191.219 32.664C190.259 33.032 189.099 33.216 187.739 33.216ZM82.68 45.2H87.432V62H82.68V45.2ZM99.0688 48.776C100.685 48.776 101.981 49.256 102.957 50.216C103.949 51.176 104.445 52.624 104.445 54.56V62H99.8848V55.304C99.8848 53.528 99.1728 52.64 97.7488 52.64C96.9648 52.64 96.3328 52.896 95.8528 53.408C95.3888 53.92 95.1568 54.688 95.1568 55.712V62H90.5968V48.992H94.9408V50.408C95.4528 49.88 96.0608 49.48 96.7648 49.208C97.4688 48.92 98.2368 48.776 99.0688 48.776ZM112.276 49.472H115.372V52.88H112.396V62H107.836V52.88H105.94V49.472H107.836V49.136C107.836 47.552 108.308 46.296 109.252 45.368C110.212 44.44 111.548 43.976 113.26 43.976C113.836 43.976 114.396 44.032 114.94 44.144C115.484 44.256 115.932 44.424 116.284 44.648L115.156 47.864C114.708 47.608 114.252 47.48 113.788 47.48C113.308 47.48 112.932 47.624 112.66 47.912C112.404 48.2 112.276 48.624 112.276 49.184V49.472ZM123.445 62.216C122.053 62.216 120.797 61.928 119.677 61.352C118.557 60.776 117.677 59.976 117.037 58.952C116.413 57.928 116.101 56.768 116.101 55.472C116.101 54.192 116.413 53.04 117.037 52.016C117.677 50.992 118.549 50.2 119.653 49.64C120.773 49.064 122.037 48.776 123.445 48.776C124.853 48.776 126.117 49.064 127.237 49.64C128.357 50.2 129.229 50.992 129.853 52.016C130.477 53.024 130.789 54.176 130.789 55.472C130.789 56.768 130.477 57.928 129.853 58.952C129.229 59.976 128.357 60.776 127.237 61.352C126.117 61.928 124.853 62.216 123.445 62.216ZM123.445 58.592C124.245 58.592 124.901 58.32 125.413 57.776C125.925 57.216 126.181 56.448 126.181 55.472C126.181 54.512 125.925 53.76 125.413 53.216C124.901 52.672 124.245 52.4 123.445 52.4C122.645 52.4 121.989 52.672 121.477 53.216C120.965 53.76 120.709 54.512 120.709 55.472C120.709 56.448 120.965 57.216 121.477 57.776C121.989 58.32 122.645 58.592 123.445 58.592Z" fill="#914255"/>
</g>
<ellipse cx="36" cy="38" rx="36" ry="38" fill="#914255"/>
<path d="M13.6092 51.8626C13.6768 51.8216 13.7476 51.7805 13.822 51.7385C14.8734 51.1568 16.3838 50.2115 17.3786 48.7123L17.6396 48.319L17.7666 48.7735C17.9532 49.4421 18.1877 50.0831 18.4636 50.6782L18.5457 50.8555L18.3775 50.9549C17.7279 51.3389 16.262 52.019 13.742 52.2619L13.6092 51.8626Z" fill="#EBBE49"/>
<path d="M17.5585 48.8316C17.7473 49.5084 17.9859 50.1614 18.2675 50.7691C17.6211 51.1513 16.1854 51.8097 13.7212 52.0472C13.787 52.0072 13.8561 51.9673 13.9284 51.9263C15.1363 51.2582 16.5838 50.3008 17.5585 48.8316Z" fill="#EBBE49"/>
<path d="M47.2138 52.3516C45.7008 52.3516 45.2364 51.1695 45.1884 51.0347C45.142 50.8973 45.0511 50.7835 44.9312 50.7108C44.8678 50.6717 42.4994 49.2373 40.6078 48.1172C39.1922 47.2777 39.1509 46.9973 39.1689 45.6488L39.1701 45.5118C39.1711 45.404 39.1721 45.2911 39.1721 45.1735V42.583C39.1721 42.4731 39.1422 42.3663 39.0852 42.2741C39.0695 42.2482 37.5412 39.729 37.4443 38.2275C37.424 37.9161 37.1643 37.6722 36.853 37.6722C36.8399 37.6722 36.8267 37.6726 36.8137 37.6734C36.6551 37.6835 36.5103 37.7545 36.4058 37.8735C36.301 37.9927 36.249 38.1451 36.2595 38.303C36.36 39.8712 37.5827 42.0627 37.955 42.6971L37.9847 42.7477V45.1735C37.9847 45.2874 37.9836 45.3956 37.9826 45.4994L37.9814 45.6328C37.9766 45.9588 37.9764 46.3022 38.0073 46.616L38.0151 46.6946L37.9703 46.7598C37.094 48.0335 32.9277 49.7633 28.3504 50.2092L28.2312 50.2207L28.1583 50.1258C27.9823 49.8969 27.7433 49.7256 27.467 49.6307L27.2285 49.5487L27.3463 49.3257C27.7728 48.5174 28.1754 47.6302 28.4796 46.8274C29.1234 45.1235 29.3972 43.6773 29.2933 42.5291C29.266 42.2265 29.0063 41.9893 28.7019 41.9893C28.6841 41.9893 28.666 41.9901 28.6477 41.9917C28.3226 42.0217 28.0813 42.3112 28.1105 42.6371C28.1979 43.5934 27.8304 46.2866 25.8137 49.6328L25.7612 49.72L23.9908 49.9832C23.6673 50.0314 23.4433 50.334 23.4915 50.6575C23.5345 50.9466 23.7865 51.1646 24.0777 51.1646C24.107 51.1646 24.1365 51.1624 24.1658 51.1581L26.9762 50.7391L26.9996 50.7385C27.0981 50.7385 27.1889 50.7918 27.2361 50.8775L28.0651 52.3518H21.302L21.2926 52.3509C20.9986 52.3248 20.2717 51.731 19.5719 50.2484C18.8575 48.7351 18.4478 46.8853 18.4478 45.1735C18.4478 40.934 19.5912 36.8059 21.5849 33.8477C23.9444 30.3471 27.432 28.4969 31.6705 28.4969C36.3507 28.4969 39.1083 30.1216 39.1341 30.138C39.2244 30.1934 39.331 30.2237 39.4392 30.2237C39.4527 30.2237 39.4664 30.2233 39.48 30.2224C40.8432 30.1347 42.3287 29.3069 44.0487 28.3483C44.0487 28.3483 44.2323 28.2471 44.3047 28.2069L44.5406 28.0755L44.6167 28.3348C44.6975 28.6099 44.8291 28.8689 45.008 29.1048C45.5225 29.7847 46.3883 30.224 47.2138 30.224C47.541 30.224 47.8074 29.9577 47.8074 29.6304C47.8074 29.303 47.541 29.0367 47.2138 29.0367C46.8436 29.0367 46.2919 28.834 45.9548 28.3889C45.7102 28.0656 45.6454 27.6935 45.7616 27.2824C45.8535 26.9564 46.1672 26.6596 46.5805 26.5081C46.7006 26.4639 46.8911 26.411 47.1144 26.411C47.3691 26.411 47.6 26.4797 47.8001 26.6151C47.8981 26.6811 48.0127 26.7163 48.1308 26.7163C48.3289 26.7163 48.5133 26.6186 48.6239 26.455C48.6582 26.4028 48.6849 26.3453 48.7018 26.286L48.7348 26.1699L48.8509 26.1372C49.2178 26.0337 49.5614 25.9558 49.9015 25.8988C50.932 25.7268 51.9179 25.6397 52.8314 25.6397C54.5845 25.6397 55.8519 25.9649 56.2217 26.5098C56.5791 27.0373 57.209 27.4629 57.8759 27.9133C58.8382 28.5619 59.5726 29.0993 59.5726 29.6306C59.5726 29.8687 59.5796 30.1563 59.5855 30.4101C59.5889 30.5455 59.5923 30.7028 59.5943 30.8437L59.5961 30.9543L59.5073 31.0202C59.1349 31.2971 58.9169 31.7489 58.7246 32.1476C58.2544 33.1183 57.7219 34.218 54.9852 34.218C54.729 34.218 54.5024 34.3816 54.4215 34.625C54.4052 34.6765 52.5904 40.1052 48.5956 42.9639C48.3896 43.1116 48.3598 43.2607 48.3038 43.6703C48.2768 43.8636 48.2413 44.1368 48.1993 44.464C48.1162 45.1135 48.0095 45.9776 47.9038 46.8396C47.6933 48.5641 47.4874 50.2845 47.4873 50.2845C47.4677 50.4522 47.5209 50.622 47.6335 50.7496C47.7461 50.8757 47.9081 50.9485 48.077 50.9485H49.0184C49.3118 50.9485 49.5841 51.0943 49.7464 51.3385L50.4225 52.3517H47.2139V52.3516H47.2138ZM53.4203 26.9317C52.8549 26.9317 52.3949 27.3918 52.3949 27.9571C52.3949 28.5226 52.855 28.9825 53.4203 28.9825C53.9857 28.9825 54.4457 28.5225 54.4457 27.9571C54.4457 27.3917 53.9858 26.9317 53.4203 26.9317Z" fill="#EBBE49"/>
<path d="M59.37 30.4149C59.3732 30.5499 59.3765 30.7063 59.3786 30.8467C58.9663 31.1532 58.7376 31.6238 58.5302 32.0534C58.066 33.0119 57.5869 34.0017 54.9854 34.0017C54.6369 34.0017 54.327 34.2252 54.2169 34.5565C54.1997 34.6105 52.3721 39.9956 48.4703 42.788C48.1798 42.9963 48.1453 43.2381 48.0902 43.6407C48.0632 43.834 48.0276 44.1081 47.9855 44.4362C47.9023 45.086 47.7956 45.9506 47.6897 46.8131C47.4793 48.538 47.2732 50.2585 47.2732 50.2585C47.2463 50.4884 47.3185 50.7183 47.4718 50.8921C47.6262 51.0647 47.8463 51.1641 48.0773 51.1641H49.0186C49.2399 51.1641 49.4449 51.2741 49.567 51.4576L50.0191 52.1354H47.2136C45.8526 52.1354 45.4315 51.0744 45.3916 50.9621C45.3301 50.7797 45.207 50.6253 45.043 50.5261C45.0192 50.5109 42.6424 49.071 40.7178 47.9311C39.3654 47.1292 39.3675 46.9327 39.3848 45.6515C39.3859 45.5025 39.388 45.3428 39.388 45.1732V42.583C39.388 42.4341 39.3469 42.2872 39.2692 42.1609C38.8482 41.4712 37.7376 39.4182 37.6598 38.2136C37.6307 37.7667 37.2454 37.4288 36.7996 37.458C36.3538 37.486 36.0147 37.8714 36.044 38.3172C36.1465 39.918 37.3577 42.1059 37.7688 42.8064V45.1735C37.7688 45.3365 37.7667 45.4876 37.7657 45.6311C37.7602 46.0003 37.7625 46.3306 37.7926 46.6371C36.9335 47.8859 32.7734 49.5612 28.3296 49.994C28.1255 49.7285 27.8481 49.5331 27.5372 49.4263C27.9678 48.6102 28.3706 47.724 28.6814 46.9037C29.3377 45.167 29.615 43.6893 29.5083 42.5095C29.4683 42.0647 29.0743 41.7366 28.6286 41.7766C28.1839 41.8176 27.8557 42.2104 27.8957 42.6562C27.982 43.6007 27.6118 46.2312 25.629 49.5212L23.9591 49.7694C23.5176 49.8352 23.2122 50.2476 23.2779 50.6891C23.3437 51.1316 23.7562 51.4371 24.1976 51.3713L26.9922 50.9547C27.0127 50.9515 27.0364 50.9622 27.0472 50.9816L27.6961 52.1355H21.3115C21.141 52.1204 20.4598 51.6239 19.7669 50.1559C19.0664 48.6718 18.6636 46.8552 18.6636 45.1734C18.6636 40.9757 19.7939 36.8912 21.7637 33.9682C24.0812 30.5303 27.5072 28.7126 31.6704 28.7126C36.314 28.7126 38.9942 30.3047 39.0178 30.3198C39.1603 30.4072 39.3265 30.4493 39.4949 30.4375C40.9046 30.3469 42.4103 29.5081 44.1536 28.5367C44.2378 28.4903 44.3241 28.4428 44.4094 28.3953C44.4968 28.6933 44.6393 28.9761 44.8358 29.2351C45.3895 29.9669 46.3231 30.4396 47.2136 30.4396C47.6606 30.4396 48.0232 30.0769 48.0232 29.6301C48.0232 29.1832 47.6606 28.8205 47.2136 28.8205C46.8855 28.8205 46.4063 28.6273 46.1268 28.2581C45.9227 27.9883 45.871 27.6882 45.9692 27.3406C46.0416 27.0837 46.3102 26.8365 46.6546 26.7102C46.8306 26.6455 47.2818 26.5246 47.679 26.7934C48.0492 27.0427 48.5522 26.9455 48.8026 26.5753C48.851 26.5018 48.8867 26.4242 48.9093 26.3443C49.2613 26.245 49.6012 26.1673 49.9369 26.1112C53.1718 25.5715 55.5821 25.9515 56.043 26.6305C56.424 27.1929 57.0715 27.63 57.7571 28.0931C58.4328 28.5485 59.3567 29.1725 59.3567 29.6302C59.357 29.8655 59.3635 30.1451 59.37 30.4149ZM54.6616 27.9572C54.6616 27.2728 54.1048 26.7159 53.4203 26.7159C52.7359 26.7159 52.179 27.2728 52.179 27.9572C52.179 28.6416 52.7359 29.1985 53.4203 29.1985C54.1048 29.1985 54.6616 28.6414 54.6616 27.9572Z" fill="#EBBE49"/>
<path d="M60.9881 30.3783C60.9945 30.6331 61 30.8748 61 31.0616C60.9988 31.3391 60.9988 31.9899 60.3555 32.1442C60.2757 32.1637 60.0879 32.5512 59.9875 32.7595C59.4975 33.7709 58.6953 35.4267 55.5576 35.6048C54.98 37.0965 53.1258 41.2954 49.6877 43.9011C49.568 44.7808 49.2431 47.4426 48.9893 49.5452H49.0186C49.7816 49.5452 50.4909 49.9241 50.914 50.5599L52.2049 52.4963C52.3711 52.7445 52.3862 53.0641 52.2448 53.3274C52.1045 53.5908 51.8304 53.7549 51.5313 53.7549H47.2138C45.1932 53.7549 44.2931 52.4013 43.9853 51.7785C43.3528 51.3964 41.4702 50.2587 39.8934 49.3239C39.25 48.9429 38.7987 48.5942 38.4836 48.2477C37.551 49.0573 36.1586 49.6898 35.0048 50.1194C33.2441 50.7746 31.1793 51.2723 29.2094 51.5248L29.7857 52.548C29.9262 52.7995 29.9239 53.106 29.7793 53.3544C29.6335 53.6026 29.368 53.7549 29.0799 53.7549H21.3082C20.3982 53.7549 19.6222 52.9745 19.0696 52.1833C18.6054 52.4574 17.9287 52.778 16.9756 53.0662C15.4624 53.5227 13.7244 53.7549 11.8096 53.7549C11.5613 53.7549 11.327 53.6404 11.1738 53.4462C11.0194 53.2508 10.9644 52.9961 11.0227 52.7543C11.0736 52.5481 11.4103 51.4698 13.1448 50.5102C14.0969 49.9824 15.0607 49.3542 15.7926 48.5036C16.5233 47.6519 17.022 46.5779 17.0447 45.1607C17.047 40.6532 18.2774 36.2449 20.4211 33.064C23.0537 29.1587 26.9428 27.0938 31.6706 27.0938C36.0164 27.0938 38.7883 28.3621 39.6128 28.7982C40.6328 28.6449 41.9638 27.9034 43.3669 27.123C43.7642 26.9018 44.1754 26.674 44.5952 26.4495C44.8953 25.8893 45.4297 25.4349 46.0977 25.1898C46.6104 25.0031 47.1361 24.961 47.6284 25.057C48.3418 24.8022 49.0111 24.6242 49.6717 24.5141C50.7057 24.3425 55.9365 23.5901 57.3828 25.7219C57.589 26.0252 58.1352 26.3943 58.663 26.7517C59.7477 27.4835 60.9762 28.3125 60.9762 29.6304C60.9761 29.8473 60.9827 30.1171 60.9881 30.3783ZM59.3787 30.8468C59.3767 30.7064 59.3733 30.5499 59.3701 30.415C59.3637 30.1452 59.3571 29.8656 59.3571 29.6303C59.3571 29.1726 58.4333 28.5487 57.7575 28.0932C57.072 27.6301 56.4243 27.193 56.0434 26.6306C55.5824 25.9517 53.1722 25.5717 49.9373 26.1113C49.6017 26.1675 49.2616 26.2452 48.9098 26.3444C48.8871 26.4243 48.8515 26.502 48.803 26.5754C48.5526 26.9456 48.0495 27.0428 47.6794 26.7935C47.282 26.5247 46.8309 26.6456 46.6551 26.7103C46.3107 26.8366 46.042 27.0838 45.9696 27.3407C45.8714 27.6883 45.9231 27.9884 46.1272 28.2582C46.4068 28.6273 46.8859 28.8206 47.2141 28.8206C47.661 28.8206 48.0236 29.1833 48.0236 29.6302C48.0236 30.077 47.661 30.4397 47.2141 30.4397C46.3235 30.4397 45.3899 29.967 44.8362 29.2351C44.6397 28.9761 44.4972 28.6933 44.4099 28.3954C44.3246 28.4429 44.2383 28.4904 44.154 28.5368C42.4107 29.5083 40.905 30.347 39.4953 30.4376C39.3269 30.4495 39.1607 30.4074 39.0183 30.3199C38.9945 30.3048 36.3143 28.7127 31.6708 28.7127C27.5077 28.7127 24.0815 30.5304 21.7642 33.9683C19.7939 36.8913 18.6637 40.9756 18.6637 45.1735C18.6637 46.8553 19.0663 48.6719 19.7669 50.156C20.4599 51.624 21.1408 52.1206 21.3115 52.1356H27.6962L27.0474 50.9817C27.0365 50.9623 27.0129 50.9516 26.9923 50.9548L24.1977 51.3714C23.7562 51.4372 23.3439 51.1317 23.278 50.6891C23.2123 50.2476 23.5178 49.8353 23.9593 49.7695L25.6291 49.5213C27.6119 46.2312 27.9822 43.6008 27.8958 42.6563C27.8559 42.2105 28.184 41.8177 28.6287 41.7767C29.0745 41.7367 29.4684 42.0648 29.5084 42.5096C29.6151 43.6893 29.3379 45.1671 28.6815 46.9038C28.3707 47.7241 27.9681 48.6103 27.5373 49.4264C27.8482 49.5332 28.1256 49.7286 28.3297 49.9941C32.7735 49.5613 36.9336 47.886 37.7928 46.6372C37.7626 46.3307 37.7602 46.0004 37.7658 45.6312C37.7669 45.4877 37.7689 45.3366 37.7689 45.1736V42.8065C37.3577 42.106 36.1467 39.9181 36.0441 38.3173C36.0148 37.8715 36.3539 37.4861 36.7997 37.4581C37.2455 37.429 37.6308 37.7668 37.66 38.2137C37.7377 39.4183 38.8483 41.4713 39.2693 42.161C39.3471 42.2873 39.3881 42.4341 39.3881 42.5831V45.1736C39.3881 45.3431 39.3859 45.5028 39.385 45.6518C39.3677 46.9331 39.3654 47.1296 40.7181 47.9315C42.6427 49.0714 45.0194 50.5113 45.0433 50.5265C45.2073 50.6258 45.3304 50.7801 45.3918 50.9625C45.4317 51.0748 45.8528 52.1358 47.2139 52.1358H50.0192L49.5671 51.458C49.445 51.2745 49.24 51.1644 49.0187 51.1644H48.0774C47.8465 51.1644 47.6263 51.0651 47.472 50.8925C47.3186 50.7186 47.2464 50.4888 47.2733 50.2589C47.2733 50.2589 47.4794 48.5383 47.6898 46.8135C47.7956 45.9511 47.9024 45.0864 47.9856 44.4366C48.0277 44.1085 48.0634 43.8343 48.0903 43.6411C48.1454 43.2385 48.1799 42.9967 48.4704 42.7884C52.3724 39.996 54.1999 34.6108 54.217 34.5569C54.3272 34.2256 54.637 34.0021 54.9855 34.0021C57.587 34.0021 58.0661 33.0123 58.5304 32.0538C58.7375 31.6239 58.9663 31.1532 59.3787 30.8468ZM18.2677 50.7692C17.986 50.1615 17.7476 49.5085 17.5586 48.8317C16.5839 50.3008 15.1364 51.2582 13.9285 51.9264C13.8561 51.9674 13.7872 52.0073 13.7213 52.0473C16.1854 51.8098 17.6211 51.1512 18.2677 50.7692Z" fill="#3D484A"/>
<path d="M53.4203 26.7159C54.1048 26.7159 54.6616 27.2728 54.6616 27.9572C54.6616 28.6416 54.1048 29.1985 53.4203 29.1985C52.7359 29.1985 52.179 28.6416 52.179 27.9572C52.179 27.2728 52.7361 26.7159 53.4203 26.7159Z" fill="#3D484A"/>
<defs>
<filter id="filter0_d" x="78.68" y="16.2" width="119.491" height="54.016" filterUnits="userSpaceOnUse" color-interpolation-filters="sRGB">
<feFlood flood-opacity="0" result="BackgroundImageFix"/>
<feColorMatrix in="SourceAlpha" type="matrix" values="0 0 0 0 0 0 0 0 0 0 0 0 0 0 0 0 0 0 127 0"/>
<feOffset dy="4"/>
<feGaussianBlur stdDeviation="2"/>
<feColorMatrix type="matrix" values="0 0 0 0 0 0 0 0 0 0 0 0 0 0 0 0 0 0 0.25 0"/>
<feBlend mode="normal" in2="BackgroundImageFix" result="effect1_dropShadow"/>
<feBlend mode="normal" in="SourceGraphic" in2="effect1_dropShadow" result="shape"/>
</filter>
</defs>
</svg>
