<svg width="162" height="48" viewBox="0 0 162 48" fill="none" xmlns="http://www.w3.org/2000/svg">
<g filter="url(#filter0_d)">
<path d="M69.2189 22.8421L69.1929 18.6951L67.2169 22.0231H65.8649L63.8889 18.8381V22.8421H61.0939V13.7421H63.6159L66.5799 18.5911L69.4659 13.7421H71.9879L72.0139 22.8421H69.2189ZM76.5913 15.6011C77.8393 15.6011 78.7926 15.8828 79.4513 16.4461C80.1099 17.0008 80.4393 17.8588 80.4393 19.0201V22.8421H77.7093V21.9061C77.3713 22.6168 76.6996 22.9721 75.6943 22.9721C75.1309 22.9721 74.6499 22.8768 74.2513 22.6861C73.8613 22.4868 73.5623 22.2224 73.3543 21.8931C73.1549 21.5551 73.0553 21.1781 73.0553 20.7621C73.0553 20.0601 73.3239 19.5271 73.8613 19.1631C74.3986 18.7991 75.2133 18.6171 76.3053 18.6171H77.4883C77.3929 18.0624 76.9466 17.7851 76.1493 17.7851C75.8286 17.7851 75.5036 17.8371 75.1743 17.9411C74.8449 18.0364 74.5633 18.1708 74.3293 18.3441L73.3933 16.4071C73.8006 16.1558 74.2903 15.9608 74.8623 15.8221C75.4429 15.6748 76.0193 15.6011 76.5913 15.6011ZM76.5783 21.2041C76.7863 21.2041 76.9726 21.1478 77.1373 21.0351C77.3019 20.9224 77.4233 20.7534 77.5013 20.5281V20.0341H76.7733C76.1753 20.0341 75.8763 20.2334 75.8763 20.6321C75.8763 20.7968 75.9369 20.9354 76.0583 21.0481C76.1883 21.1521 76.3616 21.2041 76.5783 21.2041ZM84.504 16.4981C85.024 15.9001 85.791 15.6011 86.805 15.6011V18.2011C86.571 18.1664 86.3543 18.1491 86.155 18.1491C85.1497 18.1491 84.647 18.6604 84.647 19.6831V22.8421H81.709V15.7311H84.504V16.4981ZM97.0497 15.6011C97.9077 15.6011 98.5924 15.8654 99.1037 16.3941C99.6237 16.9228 99.8837 17.7201 99.8837 18.7861V22.8421H96.9457V19.2931C96.9457 18.4784 96.6814 18.0711 96.1527 18.0711C95.8754 18.0711 95.65 18.1751 95.4767 18.3831C95.312 18.5911 95.2297 18.9204 95.2297 19.3711V22.8421H92.2917V19.2931C92.2917 18.4784 92.0274 18.0711 91.4987 18.0711C91.2214 18.0711 90.996 18.1751 90.8227 18.3831C90.658 18.5911 90.5757 18.9204 90.5757 19.3711V22.8421H87.6377V15.7311H90.4327V16.3941C90.9614 15.8654 91.633 15.6011 92.4477 15.6011C92.9244 15.6011 93.3534 15.6921 93.7347 15.8741C94.116 16.0474 94.428 16.3161 94.6707 16.6801C94.9567 16.3334 95.3034 16.0691 95.7107 15.8871C96.118 15.6964 96.5644 15.6011 97.0497 15.6011ZM105.042 22.9721C104.253 22.9721 103.543 22.8161 102.91 22.5041C102.286 22.1834 101.796 21.7458 101.441 21.1911C101.086 20.6278 100.908 19.9908 100.908 19.2801C100.908 18.5694 101.086 17.9368 101.441 17.3821C101.796 16.8188 102.286 16.3811 102.91 16.0691C103.543 15.7571 104.253 15.6011 105.042 15.6011C105.839 15.6011 106.55 15.7571 107.174 16.0691C107.807 16.3811 108.296 16.8188 108.643 17.3821C108.998 17.9368 109.176 18.5694 109.176 19.2801C109.176 19.9908 108.998 20.6278 108.643 21.1911C108.296 21.7458 107.807 22.1834 107.174 22.5041C106.55 22.8161 105.839 22.9721 105.042 22.9721ZM105.042 20.6841C105.38 20.6841 105.657 20.5628 105.874 20.3201C106.091 20.0688 106.199 19.7221 106.199 19.2801C106.199 18.8381 106.091 18.4958 105.874 18.2531C105.657 18.0104 105.38 17.8891 105.042 17.8891C104.704 17.8891 104.427 18.0104 104.21 18.2531C103.993 18.4958 103.885 18.8381 103.885 19.2801C103.885 19.7221 103.993 20.0688 104.21 20.3201C104.427 20.5628 104.704 20.6841 105.042 20.6841ZM115.335 22.5951C114.893 22.8464 114.29 22.9721 113.528 22.9721C112.531 22.9721 111.764 22.7338 111.227 22.2571C110.689 21.7718 110.421 21.0481 110.421 20.0861V18.2661H109.446V16.1211H110.421V14.1321H113.359V16.1211H114.815V18.2661H113.359V20.0601C113.359 20.2768 113.415 20.4458 113.528 20.5671C113.64 20.6884 113.788 20.7491 113.97 20.7491C114.221 20.7491 114.442 20.6841 114.633 20.5541L115.335 22.5951ZM118.857 22.9721C118.251 22.9721 117.653 22.9071 117.063 22.7771C116.474 22.6471 115.997 22.4781 115.633 22.2701L116.439 20.3331C116.769 20.5324 117.159 20.6884 117.609 20.8011C118.06 20.9138 118.498 20.9701 118.922 20.9701C119.26 20.9701 119.494 20.9441 119.624 20.8921C119.763 20.8314 119.832 20.7448 119.832 20.6321C119.832 20.5194 119.746 20.4414 119.572 20.3981C119.408 20.3548 119.135 20.3114 118.753 20.2681C118.173 20.1988 117.679 20.1121 117.271 20.0081C116.864 19.8954 116.504 19.6831 116.192 19.3711C115.889 19.0591 115.737 18.6128 115.737 18.0321C115.737 17.5728 115.876 17.1611 116.153 16.7971C116.431 16.4331 116.842 16.1428 117.388 15.9261C117.943 15.7094 118.606 15.6011 119.377 15.6011C119.915 15.6011 120.439 15.6531 120.95 15.7571C121.47 15.8524 121.912 15.9954 122.276 16.1861L121.47 18.1231C120.846 17.7764 120.162 17.6031 119.416 17.6031C118.775 17.6031 118.454 17.7158 118.454 17.9411C118.454 18.0538 118.541 18.1361 118.714 18.1881C118.888 18.2314 119.161 18.2748 119.533 18.3181C120.114 18.3874 120.604 18.4784 121.002 18.5911C121.41 18.7038 121.765 18.9161 122.068 19.2281C122.38 19.5401 122.536 19.9864 122.536 20.5671C122.536 21.0091 122.398 21.4121 122.12 21.7761C121.843 22.1401 121.427 22.4304 120.872 22.6471C120.318 22.8638 119.646 22.9721 118.857 22.9721ZM61.0939 29.7421H64.1619V38.8421H61.0939V29.7421ZM70.4879 31.6011C71.3632 31.6011 72.0652 31.8654 72.5939 32.3941C73.1312 32.9228 73.3999 33.7201 73.3999 34.7861V38.8421H70.4619V35.2931C70.4619 34.4784 70.1715 34.0711 69.5909 34.0711C69.2615 34.0711 68.9929 34.1881 68.7849 34.4221C68.5855 34.6474 68.4859 35.0071 68.4859 35.5011V38.8421H65.5479V31.7311H68.3429V32.4331C68.6202 32.1558 68.9409 31.9478 69.3049 31.8091C69.6689 31.6704 70.0632 31.6011 70.4879 31.6011ZM77.8478 32.1211H79.3948V34.2661H77.9388V38.8421H75.0008V34.2661H74.0258V32.1211H75.0008V32.0821C75.0008 31.1548 75.2781 30.4224 75.8328 29.8851C76.3875 29.3391 77.1675 29.0661 78.1728 29.0661C78.5021 29.0661 78.8228 29.0964 79.1348 29.1571C79.4468 29.2178 79.7068 29.3044 79.9148 29.4171L79.2128 31.4581C78.9701 31.3454 78.7491 31.2891 78.5498 31.2891C78.3331 31.2891 78.1598 31.3584 78.0298 31.4971C77.9085 31.6271 77.8478 31.8308 77.8478 32.1081V32.1211ZM83.9045 38.9721C83.1158 38.9721 82.4051 38.8161 81.7725 38.5041C81.1485 38.1834 80.6588 37.7458 80.3035 37.1911C79.9481 36.6278 79.7705 35.9908 79.7705 35.2801C79.7705 34.5694 79.9481 33.9368 80.3035 33.3821C80.6588 32.8188 81.1485 32.3811 81.7725 32.0691C82.4051 31.7571 83.1158 31.6011 83.9045 31.6011C84.7018 31.6011 85.4125 31.7571 86.0365 32.0691C86.6691 32.3811 87.1588 32.8188 87.5055 33.3821C87.8608 33.9368 88.0385 34.5694 88.0385 35.2801C88.0385 35.9908 87.8608 36.6278 87.5055 37.1911C87.1588 37.7458 86.6691 38.1834 86.0365 38.5041C85.4125 38.8161 84.7018 38.9721 83.9045 38.9721ZM83.9045 36.6841C84.2425 36.6841 84.5198 36.5628 84.7365 36.3201C84.9531 36.0688 85.0615 35.7221 85.0615 35.2801C85.0615 34.8381 84.9531 34.4958 84.7365 34.2531C84.5198 34.0104 84.2425 33.8891 83.9045 33.8891C83.5665 33.8891 83.2891 34.0104 83.0725 34.2531C82.8558 34.4958 82.7475 34.8381 82.7475 35.2801C82.7475 35.7221 82.8558 36.0688 83.0725 36.3201C83.2891 36.5628 83.5665 36.6841 83.9045 36.6841Z" fill="#914255"/>
</g>
<circle cx="24" cy="24" r="24" fill="#914255"/>
<path d="M9.72205 31.9893C9.76671 31.9622 9.81344 31.9351 9.86249 31.9074C10.5565 31.5235 11.5533 30.8996 12.2099 29.9101L12.3822 29.6505L12.4659 29.9505C12.5891 30.3918 12.7439 30.8148 12.9259 31.2076L12.9802 31.3246L12.8692 31.3902C12.4404 31.6436 11.4729 32.0925 9.8097 32.2528L9.72205 31.9893Z" fill="#EBBE49"/>
<path d="M12.3286 29.9889C12.4532 30.4355 12.6107 30.8665 12.7966 31.2676C12.3699 31.5198 11.4224 31.9544 9.79596 32.1111C9.8394 32.0847 9.88503 32.0584 9.93273 32.0313C10.7299 31.5904 11.6853 30.9585 12.3286 29.9889Z" fill="#EBBE49"/>
<path d="M31.9011 32.312C30.9025 32.312 30.596 31.5319 30.5643 31.4429C30.5337 31.3522 30.4737 31.2771 30.3946 31.2291C30.3527 31.2033 28.7896 30.2566 27.5412 29.5173C26.6068 28.9633 26.5796 28.7782 26.5915 27.8882L26.5923 27.7978C26.5929 27.7266 26.5936 27.6521 26.5936 27.5745V25.8648C26.5936 25.7923 26.5738 25.7218 26.5363 25.6609C26.5259 25.6438 25.5172 23.9811 25.4533 22.9902C25.4399 22.7846 25.2685 22.6236 25.063 22.6236C25.0544 22.6236 25.0457 22.6239 25.037 22.6245C24.9324 22.6311 24.8368 22.678 24.7678 22.7565C24.6987 22.8352 24.6644 22.9358 24.6713 23.04C24.7376 24.075 25.5446 25.5214 25.7903 25.9401L25.8099 25.9734V27.5745C25.8099 27.6497 25.8092 27.7211 25.8085 27.7896L25.8078 27.8776C25.8045 28.0928 25.8044 28.3195 25.8248 28.5266L25.83 28.5784L25.8004 28.6214C25.2221 29.4621 22.4723 30.6038 19.4513 30.898L19.3726 30.9056L19.3245 30.843C19.2083 30.6919 19.0506 30.5789 18.8682 30.5162L18.7108 30.4621L18.7886 30.3149C19.0701 29.7815 19.3358 29.1959 19.5365 28.6661C19.9615 27.5415 20.1421 26.587 20.0736 25.8292C20.0556 25.6295 19.8842 25.473 19.6833 25.473C19.6715 25.473 19.6596 25.4735 19.6475 25.4745C19.4329 25.4943 19.2737 25.6854 19.293 25.9005C19.3507 26.5316 19.1081 28.3092 17.777 30.5176L17.7424 30.5752L16.5739 30.7489C16.3604 30.7807 16.2126 30.9804 16.2444 31.1939C16.2728 31.3847 16.4391 31.5287 16.6313 31.5287C16.6506 31.5287 16.6701 31.5272 16.6894 31.5243L18.5443 31.2478L18.5597 31.2474C18.6248 31.2474 18.6847 31.2826 18.7159 31.3392L19.263 32.3121H14.7994L14.7931 32.3116C14.5991 32.2944 14.1193 31.9024 13.6574 30.924C13.186 29.9251 12.9156 28.7043 12.9156 27.5745C12.9156 24.7764 13.6702 22.0519 14.986 20.0994C16.5433 17.7891 18.8451 16.5679 21.6425 16.5679C24.7315 16.5679 26.5515 17.6402 26.5685 17.6511C26.6281 17.6876 26.6985 17.7076 26.7699 17.7076C26.7788 17.7076 26.7878 17.7074 26.7968 17.7067C27.6965 17.6489 28.677 17.1026 29.8122 16.4699C29.8122 16.4699 29.9333 16.4031 29.9811 16.3766L30.1368 16.2898L30.187 16.4609C30.2403 16.6425 30.3272 16.8135 30.4453 16.9691C30.7848 17.4179 31.3563 17.7078 31.9011 17.7078C32.1171 17.7078 32.2929 17.5321 32.2929 17.316C32.2929 17.1 32.1171 16.9242 31.9011 16.9242C31.6568 16.9242 31.2927 16.7904 31.0702 16.4966C30.9088 16.2833 30.866 16.0377 30.9427 15.7664C31.0033 15.5512 31.2104 15.3553 31.4831 15.2553C31.5624 15.2261 31.6881 15.1913 31.8355 15.1913C32.0036 15.1913 32.156 15.2366 32.2881 15.326C32.3528 15.3695 32.4284 15.3928 32.5064 15.3928C32.6371 15.3928 32.7588 15.3283 32.8318 15.2203C32.8544 15.1859 32.8721 15.1479 32.8832 15.1088L32.905 15.0321L32.9816 15.0105C33.2237 14.9422 33.4505 14.8908 33.675 14.8532C34.3551 14.7397 35.0058 14.6822 35.6088 14.6822C36.7658 14.6822 37.6023 14.8968 37.8463 15.2564C38.0822 15.6046 38.4979 15.8855 38.9381 16.1828C39.5732 16.6109 40.058 16.9655 40.058 17.3162C40.058 17.4734 40.0625 17.6632 40.0665 17.8306C40.0687 17.92 40.0709 18.0239 40.0723 18.1169L40.0734 18.1898L40.0148 18.2333C39.7691 18.4161 39.6252 18.7143 39.4982 18.9774C39.1879 19.618 38.8364 20.3438 37.0303 20.3438C36.8611 20.3438 36.7116 20.4519 36.6582 20.6125C36.6474 20.6465 35.4497 24.2294 32.8131 26.1161C32.6772 26.2137 32.6575 26.3121 32.6205 26.5824C32.6027 26.7099 32.5793 26.8903 32.5516 27.1062C32.4967 27.5349 32.4263 28.1052 32.3565 28.6742C32.2176 29.8123 32.0817 30.9477 32.0816 30.9477C32.0687 31.0585 32.1038 31.1705 32.1781 31.2547C32.2524 31.3379 32.3594 31.386 32.4709 31.386H33.0921C33.2858 31.386 33.4655 31.4822 33.5726 31.6434L34.0188 32.3121H31.9012V32.312H31.9011ZM35.9974 15.5349C35.6242 15.5349 35.3207 15.8386 35.3207 16.2117C35.3207 16.5849 35.6243 16.8885 35.9974 16.8885C36.3706 16.8885 36.6742 16.5848 36.6742 16.2117C36.6742 15.8385 36.3707 15.5349 35.9974 15.5349Z" fill="#EBBE49"/>
<path d="M39.9242 17.8339C39.9263 17.9229 39.9285 18.0262 39.9298 18.1188C39.6577 18.3211 39.5068 18.6317 39.3699 18.9153C39.0635 19.5479 38.7473 20.2012 37.0304 20.2012C36.8003 20.2012 36.5958 20.3486 36.5231 20.5673C36.5118 20.603 35.3056 24.1571 32.7304 26.0001C32.5387 26.1376 32.5159 26.2971 32.4795 26.5629C32.4617 26.6904 32.4382 26.8714 32.4104 27.0879C32.3555 27.5168 32.2851 28.0874 32.2152 28.6566C32.0763 29.7951 31.9403 30.9306 31.9403 30.9306C31.9225 31.0823 31.9702 31.2341 32.0714 31.3488C32.1733 31.4627 32.3186 31.5283 32.471 31.5283H33.0923C33.2383 31.5283 33.3736 31.6009 33.4542 31.722L33.7526 32.1694H31.901C31.0027 32.1694 30.7248 31.4691 30.6984 31.395C30.6579 31.2746 30.5766 31.1727 30.4684 31.1072C30.4527 31.0972 28.884 30.1469 27.6138 29.3946C26.7211 28.8653 26.7226 28.7356 26.734 27.89C26.7347 27.7917 26.736 27.6862 26.736 27.5743V25.8648C26.736 25.7665 26.709 25.6696 26.6577 25.5862C26.3798 25.131 25.6468 23.776 25.5955 22.981C25.5763 22.686 25.3219 22.463 25.0277 22.4823C24.7335 22.5008 24.5097 22.7551 24.529 23.0493C24.5967 24.1059 25.3961 25.5499 25.6674 26.0123V27.5745C25.6674 27.6821 25.666 27.7818 25.6653 27.8766C25.6617 28.1202 25.6632 28.3382 25.6831 28.5405C25.1161 29.3647 22.3704 30.4704 19.4375 30.7561C19.3028 30.5808 19.1197 30.4519 18.9145 30.3813C19.1988 29.8428 19.4646 29.2579 19.6697 28.7165C20.1028 27.5702 20.2859 26.5949 20.2154 25.8163C20.1891 25.5227 19.929 25.3062 19.6348 25.3325C19.3413 25.3596 19.1248 25.6189 19.1511 25.9131C19.2081 26.5365 18.9638 28.2726 17.6551 30.444L16.553 30.6078C16.2616 30.6513 16.06 30.9234 16.1034 31.2148C16.1468 31.5069 16.4191 31.7085 16.7104 31.6651L18.5548 31.3901C18.5683 31.388 18.584 31.3951 18.5912 31.4079L19.0194 32.1695H14.8056C14.693 32.1595 14.2435 31.8318 13.7861 30.8629C13.3238 29.8834 13.058 28.6844 13.058 27.5745C13.058 24.804 13.804 22.1082 15.104 20.179C16.6336 17.91 18.8947 16.7103 21.6424 16.7103C24.7072 16.7103 26.4762 17.7611 26.4918 17.7711C26.5858 17.8288 26.6955 17.8566 26.8066 17.8488C27.7371 17.7889 28.7308 17.2354 29.8813 16.5942C29.9369 16.5636 29.9939 16.5322 30.0502 16.5009C30.1079 16.6976 30.2019 16.8842 30.3316 17.0551C30.6971 17.5382 31.3132 17.8502 31.901 17.8502C32.196 17.8502 32.4353 17.6108 32.4353 17.3159C32.4353 17.0209 32.196 16.7815 31.901 16.7815C31.6844 16.7815 31.3682 16.6541 31.1837 16.4104C31.049 16.2323 31.0148 16.0342 31.0797 15.8048C31.1274 15.6352 31.3047 15.4721 31.5321 15.3888C31.6482 15.346 31.946 15.2662 32.2081 15.4436C32.4524 15.6082 32.7844 15.544 32.9497 15.2997C32.9817 15.2512 33.0052 15.2 33.0201 15.1473C33.2524 15.0817 33.4768 15.0304 33.6983 14.9934C35.8334 14.6372 37.4242 14.888 37.7284 15.3361C37.9798 15.7073 38.4072 15.9958 38.8597 16.3014C39.3056 16.602 39.9154 17.0138 39.9154 17.3159C39.9156 17.4713 39.9199 17.6558 39.9242 17.8339ZM36.8166 16.2118C36.8166 15.7601 36.4491 15.3925 35.9974 15.3925C35.5457 15.3925 35.1781 15.7601 35.1781 16.2118C35.1781 16.6635 35.5457 17.031 35.9974 17.031C36.4491 17.031 36.8166 16.6633 36.8166 16.2118Z" fill="#EBBE49"/>
<path d="M40.9921 17.8097C40.9964 17.9778 41 18.1374 41 18.2607C40.9992 18.4438 40.9992 18.8734 40.5746 18.9752C40.5219 18.988 40.398 19.2438 40.3317 19.3813C40.0083 20.0488 39.4789 21.1416 37.408 21.2592C37.0268 22.2437 35.803 25.015 33.5339 26.7347C33.4549 27.3153 33.2404 29.0721 33.073 30.4598H33.0923C33.5959 30.4598 34.064 30.7099 34.3432 31.1295L35.1952 32.4075C35.3049 32.5714 35.3149 32.7823 35.2216 32.9561C35.129 33.1299 34.948 33.2382 34.7507 33.2382H31.9011C30.5675 33.2382 29.9734 32.3448 29.7703 31.9338C29.3529 31.6816 28.1103 30.9307 27.0696 30.3138C26.645 30.0623 26.3472 29.8322 26.1392 29.6035C25.5236 30.1378 24.6047 30.5553 23.8432 30.8388C22.6811 31.2712 21.3183 31.5997 20.0182 31.7664L20.3986 32.4417C20.4913 32.6077 20.4898 32.81 20.3943 32.9739C20.2981 33.1377 20.1229 33.2382 19.9327 33.2382H14.8034C14.2028 33.2382 13.6906 32.7232 13.3259 32.201C13.0195 32.3819 12.5729 32.5935 11.9439 32.7837C10.9452 33.085 9.79811 33.2382 8.53431 33.2382C8.37047 33.2382 8.21585 33.1627 8.11472 33.0345C8.01282 32.9055 7.97653 32.7374 8.01501 32.5778C8.04859 32.4418 8.27083 31.7301 9.41558 31.0968C10.0439 30.7484 10.6801 30.3338 11.1631 29.7724C11.6454 29.2103 11.9745 28.5014 11.9895 27.5661C11.991 24.5911 12.8031 21.6816 14.2179 19.5822C15.9554 17.0047 18.5222 15.6419 21.6426 15.6419C24.5108 15.6419 26.3403 16.479 26.8844 16.7668C27.5576 16.6656 28.4361 16.1763 29.3621 15.6612C29.6243 15.5152 29.8958 15.3649 30.1728 15.2167C30.3709 14.8469 30.7236 14.547 31.1645 14.3853C31.5029 14.2621 31.8498 14.2343 32.1748 14.2976C32.6456 14.1295 33.0873 14.012 33.5233 13.9393C34.2058 13.826 37.6581 13.3295 38.6126 14.7364C38.7487 14.9366 39.1093 15.1803 39.4576 15.4161C40.1735 15.8991 40.9843 16.4462 40.9843 17.316C40.9842 17.4592 40.9886 17.6373 40.9921 17.8097ZM39.9299 18.1189C39.9286 18.0263 39.9264 17.9229 39.9243 17.8339C39.92 17.6558 39.9157 17.4713 39.9157 17.316C39.9157 17.014 39.306 16.6022 38.86 16.3015C38.4075 15.9959 37.98 15.7074 37.7287 15.3362C37.4244 14.8881 35.8336 14.6373 33.6986 14.9935C33.4771 15.0305 33.2527 15.0818 33.0204 15.1473C33.0055 15.2 32.982 15.2514 32.95 15.2998C32.7847 15.5441 32.4527 15.6082 32.2084 15.4437C31.9461 15.2663 31.6484 15.3461 31.5323 15.3888C31.3051 15.4722 31.1277 15.6353 31.0799 15.8049C31.0151 16.0343 31.0493 16.2323 31.184 16.4104C31.3685 16.654 31.6847 16.7816 31.9013 16.7816C32.1963 16.7816 32.4356 17.021 32.4356 17.3159C32.4356 17.6109 32.1963 17.8502 31.9013 17.8502C31.3135 17.8502 30.6974 17.5382 30.3319 17.0552C30.2022 16.8842 30.1081 16.6976 30.0505 16.501C29.9942 16.5323 29.9373 16.5637 29.8816 16.5943C28.7311 17.2355 27.7373 17.789 26.8069 17.8488C26.6958 17.8567 26.5861 17.8289 26.492 17.7711C26.4764 17.7612 24.7075 16.7104 21.6427 16.7104C18.8951 16.7104 16.6338 17.91 15.1043 20.1791C13.804 22.1083 13.058 24.8039 13.058 27.5745C13.058 28.6845 13.3238 29.8834 13.7861 30.863C14.2435 31.8319 14.6929 32.1596 14.8056 32.1695H19.0195L18.5913 31.4079C18.5841 31.3951 18.5685 31.388 18.5549 31.3902L16.7105 31.6651C16.4191 31.7086 16.147 31.5069 16.1035 31.2148C16.0601 30.9234 16.2617 30.6513 16.5531 30.6079L17.6552 30.444C18.9639 28.2726 19.2083 26.5365 19.1512 25.9132C19.1249 25.619 19.3414 25.3597 19.6349 25.3326C19.9292 25.3062 20.1892 25.5228 20.2155 25.8163C20.286 26.595 20.103 27.5703 19.6698 28.7165C19.4647 29.2579 19.1989 29.8428 18.9146 30.3814C19.1198 30.4519 19.3029 30.5809 19.4376 30.7561C22.3705 30.4705 25.1162 29.3648 25.6832 28.5406C25.6633 28.3382 25.6618 28.1203 25.6654 27.8766C25.6661 27.7819 25.6675 27.6822 25.6675 27.5746V26.0123C25.3961 25.55 24.5968 24.1059 24.5291 23.0494C24.5098 22.7552 24.7336 22.5008 25.0278 22.4823C25.322 22.4631 25.5764 22.6861 25.5956 22.981C25.6469 23.776 26.3799 25.131 26.6578 25.5863C26.7091 25.6696 26.7361 25.7665 26.7361 25.8648V27.5746C26.7361 27.6864 26.7347 27.7919 26.7341 27.8902C26.7227 28.7358 26.7212 28.8655 27.6139 29.3948C28.8842 30.1471 30.4528 31.0975 30.4685 31.1075C30.5768 31.173 30.658 31.2748 30.6986 31.3952C30.7249 31.4694 31.0029 32.1696 31.9011 32.1696H33.7527L33.4543 31.7223C33.3737 31.6012 33.2384 31.5285 33.0924 31.5285H32.4711C32.3187 31.5285 32.1733 31.463 32.0715 31.349C31.9703 31.2343 31.9226 31.0826 31.9404 30.9309C31.9404 30.9309 32.0764 29.7953 32.2153 28.6569C32.2851 28.0877 32.3556 27.517 32.4105 27.0882C32.4383 26.8716 32.4618 26.6906 32.4796 26.5631C32.516 26.2974 32.5387 26.1378 32.7305 26.0003C35.3058 24.1574 36.5119 20.6032 36.5232 20.5676C36.596 20.3489 36.8004 20.2014 37.0305 20.2014C38.7474 20.2014 39.0636 19.5481 39.37 18.9155C39.5067 18.6318 39.6578 18.3211 39.9299 18.1189ZM12.7967 31.2677C12.6108 30.8666 12.4534 30.4356 12.3287 29.9889C11.6854 30.9585 10.73 31.5904 9.93281 32.0314C9.88506 32.0585 9.83955 32.0848 9.79605 32.1112C11.4224 31.9544 12.3699 31.5198 12.7967 31.2677Z" fill="#3D484A"/>
<path d="M35.9974 15.3925C36.4491 15.3925 36.8167 15.7601 36.8167 16.2118C36.8167 16.6635 36.4491 17.031 35.9974 17.031C35.5457 17.031 35.1781 16.6635 35.1781 16.2118C35.1781 15.7601 35.5458 15.3925 35.9974 15.3925Z" fill="#3D484A"/>
<defs>
<filter id="filter0_d" x="57.0939" y="13.7421" width="69.4423" height="33.23" filterUnits="userSpaceOnUse" color-interpolation-filters="sRGB">
<feFlood flood-opacity="0" result="BackgroundImageFix"/>
<feColorMatrix in="SourceAlpha" type="matrix" values="0 0 0 0 0 0 0 0 0 0 0 0 0 0 0 0 0 0 127 0"/>
<feOffset dy="4"/>
<feGaussianBlur stdDeviation="2"/>
<feColorMatrix type="matrix" values="0 0 0 0 0 0 0 0 0 0 0 0 0 0 0 0 0 0 0.25 0"/>
<feBlend mode="normal" in2="BackgroundImageFix" result="effect1_dropShadow"/>
<feBlend mode="normal" in="SourceGraphic" in2="effect1_dropShadow" result="shape"/>
</filter>
</defs>
</svg>
