<svg width="45" height="45" viewBox="0 0 45 45" fill="none" xmlns="http://www.w3.org/2000/svg">
<circle cx="22.5" cy="22.5" r="22.5" fill="#914255"/>
<path d="M17.8962 24.5664H19.8755C19.9368 23.2329 20.1745 21.9458 20.5916 20.9595C19.1632 21.6145 18.1293 22.9586 17.8962 24.5664Z" fill="#EBBE49"/>
<path d="M22.5449 20.5234C22.1844 20.5234 21.3522 21.9449 21.2233 24.5664H23.8665C23.7376 21.9449 22.9054 20.5234 22.5449 20.5234Z" fill="#EBBE49"/>
<path d="M21.2233 25.9141C21.3522 28.5355 22.1844 29.957 22.5449 29.957C22.9053 29.957 23.7376 28.5355 23.8665 25.9141H21.2233Z" fill="#EBBE49"/>
<path d="M31.9785 11H13.0215C11.9068 11 11 11.9068 11 13.0215V15.043H34V13.0215C34 11.9068 33.0932 11 31.9785 11ZM22.5449 13.6953H21.1973C20.309 13.6953 20.3054 12.3477 21.1973 12.3477H22.5449C23.4332 12.3477 23.4368 13.6953 22.5449 13.6953ZM26.5879 13.6953H25.2402C24.352 13.6953 24.3484 12.3477 25.2402 12.3477H26.5879C27.4761 12.3477 27.4798 13.6953 26.5879 13.6953ZM30.6309 13.6953H29.2832C28.395 13.6953 28.3913 12.3477 29.2832 12.3477H30.6309C31.5191 12.3477 31.5227 13.6953 30.6309 13.6953Z" fill="#EBBE49"/>
<path d="M19.8755 25.9141H17.8962C18.1293 27.5219 19.1632 28.866 20.5916 29.5209C20.1745 28.5346 19.9368 27.2476 19.8755 25.9141Z" fill="#EBBE49"/>
<path d="M11 16.3906V31.9785C11 33.0932 11.9068 34 13.0215 34H31.9785C33.0932 34 34 33.0932 34 31.9785V16.3906H11ZM22.5449 31.3047C19.2008 31.3047 16.4805 28.5844 16.4805 25.2402C16.4805 21.8961 19.2008 19.1758 22.5449 19.1758C25.889 19.1758 28.6094 21.8961 28.6094 25.2402C28.6094 28.5844 25.889 31.3047 22.5449 31.3047Z" fill="#EBBE49"/>
<path d="M24.4982 20.9595C24.9153 21.9458 25.1531 23.2329 25.2143 24.5664H27.1936C26.9605 22.9586 25.9267 21.6145 24.4982 20.9595Z" fill="#EBBE49"/>
<path d="M25.2143 25.9141C25.1531 27.2476 24.9153 28.5346 24.4982 29.5209C25.9267 28.866 26.9605 27.5219 27.1936 25.9141H25.2143Z" fill="#EBBE49"/>
</svg>
