<svg width="209" height="63" viewBox="0 0 209 63" fill="none" xmlns="http://www.w3.org/2000/svg">
<g filter="url(#filter0_d)">
<path d="M4 27.5C4 12.3122 16.3122 0 31.5 0L177.5 0C192.688 0 205 12.3122 205 27.5V27.5C205 42.6878 192.688 55 177.5 55H31.5C16.3122 55 4 42.6878 4 27.5V27.5Z" fill="#1693DA"/>
<path d="M54.42 35.24C52.9667 35.24 51.6533 34.9267 50.48 34.3C49.32 33.6733 48.4067 32.8133 47.74 31.72C47.0867 30.6133 46.76 29.3733 46.76 28C46.76 26.6267 47.0867 25.3933 47.74 24.3C48.4067 23.1933 49.32 22.3267 50.48 21.7C51.6533 21.0733 52.9667 20.76 54.42 20.76C55.8733 20.76 57.18 21.0733 58.34 21.7C59.5 22.3267 60.4133 23.1933 61.08 24.3C61.7467 25.3933 62.08 26.6267 62.08 28C62.08 29.3733 61.7467 30.6133 61.08 31.72C60.4133 32.8133 59.5 33.6733 58.34 34.3C57.18 34.9267 55.8733 35.24 54.42 35.24ZM54.42 32.48C55.2467 32.48 55.9933 32.2933 56.66 31.92C57.3267 31.5333 57.8467 31 58.22 30.32C58.6067 29.64 58.8 28.8667 58.8 28C58.8 27.1333 58.6067 26.36 58.22 25.68C57.8467 25 57.3267 24.4733 56.66 24.1C55.9933 23.7133 55.2467 23.52 54.42 23.52C53.5933 23.52 52.8467 23.7133 52.18 24.1C51.5133 24.4733 50.9867 25 50.6 25.68C50.2267 26.36 50.04 27.1333 50.04 28C50.04 28.8667 50.2267 29.64 50.6 30.32C50.9867 31 51.5133 31.5333 52.18 31.92C52.8467 32.2933 53.5933 32.48 54.42 32.48ZM73.2392 26.8H69.5992V35H66.4992V26.8H62.8592V24.24H73.2392V26.8ZM85.6023 24.24V35H82.4823V26.8H78.0023V35H74.9023V24.24H85.6023ZM94.9338 24.08C95.9338 24.08 96.8404 24.3133 97.6537 24.78C98.4804 25.2333 99.1271 25.88 99.5938 26.72C100.06 27.5467 100.294 28.5133 100.294 29.62C100.294 30.7267 100.06 31.7 99.5938 32.54C99.1271 33.3667 98.4804 34.0133 97.6537 34.48C96.8404 34.9333 95.9338 35.16 94.9338 35.16C93.5604 35.16 92.4804 34.7267 91.6938 33.86V38.88H88.5738V24.24H91.5538V25.48C92.3271 24.5467 93.4538 24.08 94.9338 24.08ZM94.3938 32.6C95.1938 32.6 95.8471 32.3333 96.3538 31.8C96.8738 31.2533 97.1338 30.5267 97.1338 29.62C97.1338 28.7133 96.8738 27.9933 96.3538 27.46C95.8471 26.9133 95.1938 26.64 94.3938 26.64C93.5938 26.64 92.9338 26.9133 92.4138 27.46C91.9071 27.9933 91.6538 28.7133 91.6538 29.62C91.6538 30.5267 91.9071 31.2533 92.4138 31.8C92.9338 32.3333 93.5938 32.6 94.3938 32.6ZM106.485 24.08C108.151 24.08 109.431 24.48 110.325 25.28C111.218 26.0667 111.665 27.26 111.665 28.86V35H108.745V33.66C108.158 34.66 107.065 35.16 105.465 35.16C104.638 35.16 103.918 35.02 103.305 34.74C102.705 34.46 102.245 34.0733 101.925 33.58C101.605 33.0867 101.445 32.5267 101.445 31.9C101.445 30.9 101.818 30.1133 102.565 29.54C103.325 28.9667 104.491 28.68 106.065 28.68H108.545C108.545 28 108.338 27.48 107.925 27.12C107.511 26.7467 106.891 26.56 106.065 26.56C105.491 26.56 104.925 26.6533 104.365 26.84C103.818 27.0133 103.351 27.2533 102.965 27.56L101.845 25.38C102.431 24.9667 103.131 24.6467 103.945 24.42C104.771 24.1933 105.618 24.08 106.485 24.08ZM106.245 33.06C106.778 33.06 107.251 32.94 107.665 32.7C108.078 32.4467 108.371 32.08 108.545 31.6V30.5H106.405C105.125 30.5 104.485 30.92 104.485 31.76C104.485 32.16 104.638 32.48 104.945 32.72C105.265 32.9467 105.698 33.06 106.245 33.06ZM122.595 29.38C123.862 29.8067 124.495 30.66 124.495 31.94C124.495 32.9133 124.128 33.6667 123.395 34.2C122.662 34.7333 121.568 35 120.115 35H114.375V24.24H119.875C121.222 24.24 122.275 24.4867 123.035 24.98C123.795 25.46 124.175 26.14 124.175 27.02C124.175 27.5533 124.035 28.0267 123.755 28.44C123.488 28.84 123.102 29.1533 122.595 29.38ZM117.235 28.66H119.595C120.688 28.66 121.235 28.2733 121.235 27.5C121.235 26.74 120.688 26.36 119.595 26.36H117.235V28.66ZM119.855 32.88C121.002 32.88 121.575 32.4867 121.575 31.7C121.575 31.2867 121.442 30.9867 121.175 30.8C120.908 30.6 120.488 30.5 119.915 30.5H117.235V32.88H119.855ZM126.816 24.24H129.916V30.64L135.156 24.24H138.016V35H134.916V28.6L129.696 35H126.816V24.24ZM150.056 26.8H146.416V35H143.316V26.8H139.676V24.24H150.056V26.8ZM157.539 27.68C158.939 27.6933 160.012 28.0133 160.759 28.64C161.505 29.2533 161.879 30.1267 161.879 31.26C161.879 32.4467 161.459 33.3733 160.619 34.04C159.792 34.6933 158.625 35.02 157.119 35.02L151.719 35V24.24H154.819V27.68H157.539ZM156.839 32.8C157.439 32.8133 157.899 32.6867 158.219 32.42C158.539 32.1533 158.699 31.7533 158.699 31.22C158.699 30.7 158.539 30.32 158.219 30.08C157.912 29.84 157.452 29.7133 156.839 29.7L154.819 29.68V32.8H156.839Z" fill="white"/>
</g>
<defs>
<filter id="filter0_d" x="0" y="0" width="209" height="63" filterUnits="userSpaceOnUse" color-interpolation-filters="sRGB">
<feFlood flood-opacity="0" result="BackgroundImageFix"/>
<feColorMatrix in="SourceAlpha" type="matrix" values="0 0 0 0 0 0 0 0 0 0 0 0 0 0 0 0 0 0 127 0"/>
<feOffset dy="4"/>
<feGaussianBlur stdDeviation="2"/>
<feColorMatrix type="matrix" values="0 0 0 0 0 0 0 0 0 0 0 0 0 0 0 0 0 0 0.25 0"/>
<feBlend mode="normal" in2="BackgroundImageFix" result="effect1_dropShadow"/>
<feBlend mode="normal" in="SourceGraphic" in2="effect1_dropShadow" result="shape"/>
</filter>
</defs>
</svg>
